<mxfile host="app.diagrams.net" agent="Mozilla/5.0 (Windows NT 10.0; Win64; x64; rv:130.0) Gecko/20100101 Firefox/130.0" version="24.7.16">
  <diagram name="Page-1" id="8Zpo332dCGun63UNyjS6">
    <mxGraphModel dx="989" dy="534" grid="1" gridSize="10" guides="1" tooltips="1" connect="1" arrows="1" fold="1" page="1" pageScale="1" pageWidth="1654" pageHeight="2336" math="0" shadow="0">
      <root>
        <mxCell id="0" />
        <mxCell id="1" parent="0" />
        <mxCell id="m6FLoSGMfTkBYZxW1C0_-3" value="1" style="edgeStyle=orthogonalEdgeStyle;rounded=0;orthogonalLoop=1;jettySize=auto;html=1;endArrow=none;endFill=0;" parent="1" source="m6FLoSGMfTkBYZxW1C0_-1" target="m6FLoSGMfTkBYZxW1C0_-2" edge="1">
          <mxGeometry x="0.8" relative="1" as="geometry">
            <mxPoint as="offset" />
          </mxGeometry>
        </mxCell>
        <mxCell id="m6FLoSGMfTkBYZxW1C0_-26" style="edgeStyle=orthogonalEdgeStyle;rounded=0;orthogonalLoop=1;jettySize=auto;html=1;exitX=0;exitY=0;exitDx=0;exitDy=0;entryX=0.5;entryY=1;entryDx=0;entryDy=0;endArrow=none;endFill=0;" parent="1" source="m6FLoSGMfTkBYZxW1C0_-1" target="m6FLoSGMfTkBYZxW1C0_-22" edge="1">
          <mxGeometry relative="1" as="geometry" />
        </mxCell>
        <mxCell id="m6FLoSGMfTkBYZxW1C0_-27" style="edgeStyle=orthogonalEdgeStyle;rounded=0;orthogonalLoop=1;jettySize=auto;html=1;exitX=0.25;exitY=0;exitDx=0;exitDy=0;entryX=0.5;entryY=1;entryDx=0;entryDy=0;endArrow=none;endFill=0;" parent="1" source="m6FLoSGMfTkBYZxW1C0_-1" target="m6FLoSGMfTkBYZxW1C0_-23" edge="1">
          <mxGeometry relative="1" as="geometry" />
        </mxCell>
        <mxCell id="m6FLoSGMfTkBYZxW1C0_-49" value="1" style="edgeStyle=orthogonalEdgeStyle;rounded=0;orthogonalLoop=1;jettySize=auto;html=1;endArrow=none;endFill=0;" parent="1" source="m6FLoSGMfTkBYZxW1C0_-1" target="m6FLoSGMfTkBYZxW1C0_-48" edge="1">
          <mxGeometry x="0.8" relative="1" as="geometry">
            <mxPoint as="offset" />
          </mxGeometry>
        </mxCell>
        <mxCell id="m6FLoSGMfTkBYZxW1C0_-61" value="N" style="edgeStyle=orthogonalEdgeStyle;rounded=0;orthogonalLoop=1;jettySize=auto;html=1;endArrow=none;endFill=0;" parent="1" source="m6FLoSGMfTkBYZxW1C0_-1" target="m6FLoSGMfTkBYZxW1C0_-60" edge="1">
          <mxGeometry x="0.5385" relative="1" as="geometry">
            <mxPoint as="offset" />
          </mxGeometry>
        </mxCell>
        <mxCell id="m6FLoSGMfTkBYZxW1C0_-1" value="Butik" style="rounded=0;whiteSpace=wrap;html=1;" parent="1" vertex="1">
          <mxGeometry x="650" y="210" width="120" height="60" as="geometry" />
        </mxCell>
        <mxCell id="m6FLoSGMfTkBYZxW1C0_-21" value="N" style="edgeStyle=orthogonalEdgeStyle;rounded=0;orthogonalLoop=1;jettySize=auto;html=1;exitX=0;exitY=0.5;exitDx=0;exitDy=0;entryX=1;entryY=0.5;entryDx=0;entryDy=0;endArrow=none;endFill=0;" parent="1" source="m6FLoSGMfTkBYZxW1C0_-2" target="m6FLoSGMfTkBYZxW1C0_-4" edge="1">
          <mxGeometry x="-0.6667" relative="1" as="geometry">
            <mxPoint as="offset" />
          </mxGeometry>
        </mxCell>
        <mxCell id="m6FLoSGMfTkBYZxW1C0_-2" value="har" style="rhombus;whiteSpace=wrap;html=1;rounded=0;" parent="1" vertex="1">
          <mxGeometry x="470" y="200" width="80" height="80" as="geometry" />
        </mxCell>
        <mxCell id="m6FLoSGMfTkBYZxW1C0_-14" style="edgeStyle=orthogonalEdgeStyle;rounded=0;orthogonalLoop=1;jettySize=auto;html=1;exitX=0;exitY=0;exitDx=0;exitDy=0;entryX=0.5;entryY=1;entryDx=0;entryDy=0;endArrow=none;endFill=0;" parent="1" source="m6FLoSGMfTkBYZxW1C0_-4" target="m6FLoSGMfTkBYZxW1C0_-6" edge="1">
          <mxGeometry relative="1" as="geometry" />
        </mxCell>
        <mxCell id="m6FLoSGMfTkBYZxW1C0_-17" style="edgeStyle=orthogonalEdgeStyle;rounded=0;orthogonalLoop=1;jettySize=auto;html=1;exitX=0.75;exitY=0;exitDx=0;exitDy=0;entryX=0.5;entryY=1;entryDx=0;entryDy=0;endArrow=none;endFill=0;" parent="1" source="m6FLoSGMfTkBYZxW1C0_-4" target="m6FLoSGMfTkBYZxW1C0_-9" edge="1">
          <mxGeometry relative="1" as="geometry" />
        </mxCell>
        <mxCell id="m6FLoSGMfTkBYZxW1C0_-4" value="Anställda" style="whiteSpace=wrap;html=1;rounded=0;" parent="1" vertex="1">
          <mxGeometry x="290" y="210" width="120" height="60" as="geometry" />
        </mxCell>
        <mxCell id="m6FLoSGMfTkBYZxW1C0_-6" value="Lön" style="ellipse;whiteSpace=wrap;html=1;" parent="1" vertex="1">
          <mxGeometry x="210" y="120" width="40" height="40" as="geometry" />
        </mxCell>
        <mxCell id="URoDn2Y77BlblB-8Fl30-33" style="edgeStyle=orthogonalEdgeStyle;rounded=0;orthogonalLoop=1;jettySize=auto;html=1;exitX=0.5;exitY=1;exitDx=0;exitDy=0;entryX=0.25;entryY=0;entryDx=0;entryDy=0;endArrow=none;endFill=0;" edge="1" parent="1" source="m6FLoSGMfTkBYZxW1C0_-7" target="m6FLoSGMfTkBYZxW1C0_-4">
          <mxGeometry relative="1" as="geometry">
            <Array as="points">
              <mxPoint x="275" y="170" />
              <mxPoint x="320" y="170" />
            </Array>
          </mxGeometry>
        </mxCell>
        <mxCell id="m6FLoSGMfTkBYZxW1C0_-7" value="Roll" style="ellipse;whiteSpace=wrap;html=1;" parent="1" vertex="1">
          <mxGeometry x="255" y="120" width="40" height="40" as="geometry" />
        </mxCell>
        <mxCell id="URoDn2Y77BlblB-8Fl30-27" style="edgeStyle=orthogonalEdgeStyle;rounded=0;orthogonalLoop=1;jettySize=auto;html=1;exitX=0.5;exitY=1;exitDx=0;exitDy=0;entryX=0.5;entryY=0;entryDx=0;entryDy=0;endArrow=none;endFill=0;" edge="1" parent="1" source="m6FLoSGMfTkBYZxW1C0_-8" target="m6FLoSGMfTkBYZxW1C0_-4">
          <mxGeometry relative="1" as="geometry">
            <Array as="points">
              <mxPoint x="350" y="160" />
            </Array>
          </mxGeometry>
        </mxCell>
        <mxCell id="m6FLoSGMfTkBYZxW1C0_-8" value="&lt;u style=&quot;font-size: 10px;&quot;&gt;Anställningsnummer&lt;/u&gt;" style="ellipse;whiteSpace=wrap;html=1;fontSize=10;" parent="1" vertex="1">
          <mxGeometry x="300" y="120" width="120" height="40" as="geometry" />
        </mxCell>
        <mxCell id="m6FLoSGMfTkBYZxW1C0_-9" value="Namn" style="ellipse;whiteSpace=wrap;html=1;" parent="1" vertex="1">
          <mxGeometry x="430" y="120" width="40" height="40" as="geometry" />
        </mxCell>
        <mxCell id="m6FLoSGMfTkBYZxW1C0_-44" style="edgeStyle=orthogonalEdgeStyle;rounded=0;orthogonalLoop=1;jettySize=auto;html=1;exitX=0;exitY=1;exitDx=0;exitDy=0;entryX=1;entryY=1;entryDx=0;entryDy=0;endArrow=none;endFill=0;" parent="1" source="m6FLoSGMfTkBYZxW1C0_-22" target="m6FLoSGMfTkBYZxW1C0_-30" edge="1">
          <mxGeometry relative="1" as="geometry" />
        </mxCell>
        <mxCell id="m6FLoSGMfTkBYZxW1C0_-45" style="edgeStyle=orthogonalEdgeStyle;rounded=0;orthogonalLoop=1;jettySize=auto;html=1;exitX=0;exitY=0.5;exitDx=0;exitDy=0;entryX=1;entryY=1;entryDx=0;entryDy=0;endArrow=none;endFill=0;" parent="1" source="m6FLoSGMfTkBYZxW1C0_-22" target="m6FLoSGMfTkBYZxW1C0_-31" edge="1">
          <mxGeometry relative="1" as="geometry" />
        </mxCell>
        <mxCell id="m6FLoSGMfTkBYZxW1C0_-46" style="edgeStyle=orthogonalEdgeStyle;rounded=0;orthogonalLoop=1;jettySize=auto;html=1;exitX=0;exitY=0;exitDx=0;exitDy=0;entryX=0.5;entryY=1;entryDx=0;entryDy=0;endArrow=none;endFill=0;" parent="1" source="m6FLoSGMfTkBYZxW1C0_-22" target="m6FLoSGMfTkBYZxW1C0_-33" edge="1">
          <mxGeometry relative="1" as="geometry" />
        </mxCell>
        <mxCell id="URoDn2Y77BlblB-8Fl30-1" style="edgeStyle=orthogonalEdgeStyle;rounded=0;orthogonalLoop=1;jettySize=auto;html=1;exitX=0.5;exitY=0;exitDx=0;exitDy=0;entryX=0;entryY=1;entryDx=0;entryDy=0;endArrow=none;endFill=0;" edge="1" parent="1" source="m6FLoSGMfTkBYZxW1C0_-22" target="m6FLoSGMfTkBYZxW1C0_-32">
          <mxGeometry relative="1" as="geometry" />
        </mxCell>
        <mxCell id="m6FLoSGMfTkBYZxW1C0_-22" value="Adress" style="ellipse;whiteSpace=wrap;html=1;fontSize=11;" parent="1" vertex="1">
          <mxGeometry x="615" y="130" width="40" height="40" as="geometry" />
        </mxCell>
        <mxCell id="m6FLoSGMfTkBYZxW1C0_-23" value="Telefon" style="ellipse;whiteSpace=wrap;html=1;fontSize=10;" parent="1" vertex="1">
          <mxGeometry x="660" y="130" width="40" height="40" as="geometry" />
        </mxCell>
        <mxCell id="URoDn2Y77BlblB-8Fl30-23" style="edgeStyle=orthogonalEdgeStyle;rounded=0;orthogonalLoop=1;jettySize=auto;html=1;exitX=0.5;exitY=1;exitDx=0;exitDy=0;entryX=0.75;entryY=0;entryDx=0;entryDy=0;endArrow=none;endFill=0;" edge="1" parent="1" source="m6FLoSGMfTkBYZxW1C0_-24" target="m6FLoSGMfTkBYZxW1C0_-1">
          <mxGeometry relative="1" as="geometry" />
        </mxCell>
        <mxCell id="m6FLoSGMfTkBYZxW1C0_-24" value="&lt;u&gt;Butiksnummer&lt;/u&gt;" style="ellipse;whiteSpace=wrap;html=1;" parent="1" vertex="1">
          <mxGeometry x="715" y="130" width="95" height="40" as="geometry" />
        </mxCell>
        <mxCell id="URoDn2Y77BlblB-8Fl30-22" style="edgeStyle=orthogonalEdgeStyle;rounded=0;orthogonalLoop=1;jettySize=auto;html=1;exitX=0.5;exitY=1;exitDx=0;exitDy=0;entryX=1;entryY=0;entryDx=0;entryDy=0;endArrow=none;endFill=0;" edge="1" parent="1" source="m6FLoSGMfTkBYZxW1C0_-25" target="m6FLoSGMfTkBYZxW1C0_-1">
          <mxGeometry relative="1" as="geometry" />
        </mxCell>
        <mxCell id="m6FLoSGMfTkBYZxW1C0_-25" value="Namn" style="ellipse;whiteSpace=wrap;html=1;" parent="1" vertex="1">
          <mxGeometry x="820" y="130" width="40" height="40" as="geometry" />
        </mxCell>
        <mxCell id="m6FLoSGMfTkBYZxW1C0_-30" value="Gata" style="ellipse;whiteSpace=wrap;html=1;" parent="1" vertex="1">
          <mxGeometry x="540" y="130" width="40" height="40" as="geometry" />
        </mxCell>
        <mxCell id="m6FLoSGMfTkBYZxW1C0_-31" value="Stad" style="ellipse;whiteSpace=wrap;html=1;" parent="1" vertex="1">
          <mxGeometry x="560" y="90" width="40" height="40" as="geometry" />
        </mxCell>
        <mxCell id="m6FLoSGMfTkBYZxW1C0_-32" value="Post- Nr" style="ellipse;whiteSpace=wrap;html=1;" parent="1" vertex="1">
          <mxGeometry x="630" y="60" width="40" height="40" as="geometry" />
        </mxCell>
        <mxCell id="m6FLoSGMfTkBYZxW1C0_-33" value="Hus- Nr" style="ellipse;whiteSpace=wrap;html=1;" parent="1" vertex="1">
          <mxGeometry x="590" y="60" width="40" height="40" as="geometry" />
        </mxCell>
        <mxCell id="m6FLoSGMfTkBYZxW1C0_-51" value="N" style="edgeStyle=orthogonalEdgeStyle;rounded=0;orthogonalLoop=1;jettySize=auto;html=1;endArrow=none;endFill=0;" parent="1" source="m6FLoSGMfTkBYZxW1C0_-48" target="m6FLoSGMfTkBYZxW1C0_-50" edge="1">
          <mxGeometry x="-0.6667" relative="1" as="geometry">
            <mxPoint as="offset" />
          </mxGeometry>
        </mxCell>
        <mxCell id="m6FLoSGMfTkBYZxW1C0_-48" value="har" style="rhombus;whiteSpace=wrap;html=1;rounded=0;" parent="1" vertex="1">
          <mxGeometry x="870" y="200" width="80" height="80" as="geometry" />
        </mxCell>
        <mxCell id="m6FLoSGMfTkBYZxW1C0_-103" value="N" style="edgeStyle=orthogonalEdgeStyle;rounded=0;orthogonalLoop=1;jettySize=auto;html=1;exitX=0.5;exitY=1;exitDx=0;exitDy=0;entryX=0.5;entryY=0;entryDx=0;entryDy=0;endArrow=none;endFill=0;" parent="1" source="m6FLoSGMfTkBYZxW1C0_-50" target="m6FLoSGMfTkBYZxW1C0_-100" edge="1">
          <mxGeometry x="0.7931" relative="1" as="geometry">
            <mxPoint as="offset" />
          </mxGeometry>
        </mxCell>
        <mxCell id="m6FLoSGMfTkBYZxW1C0_-104" value="N" style="edgeStyle=orthogonalEdgeStyle;rounded=0;orthogonalLoop=1;jettySize=auto;html=1;exitX=0.5;exitY=1;exitDx=0;exitDy=0;entryX=0.5;entryY=0;entryDx=0;entryDy=0;endArrow=none;endFill=0;" parent="1" source="m6FLoSGMfTkBYZxW1C0_-50" target="m6FLoSGMfTkBYZxW1C0_-102" edge="1">
          <mxGeometry x="0.7931" relative="1" as="geometry">
            <mxPoint as="offset" />
          </mxGeometry>
        </mxCell>
        <mxCell id="m6FLoSGMfTkBYZxW1C0_-50" value="Medlem" style="whiteSpace=wrap;html=1;rounded=0;" parent="1" vertex="1">
          <mxGeometry x="1010" y="210" width="120" height="60" as="geometry" />
        </mxCell>
        <mxCell id="URoDn2Y77BlblB-8Fl30-20" style="edgeStyle=orthogonalEdgeStyle;rounded=0;orthogonalLoop=1;jettySize=auto;html=1;exitX=0.5;exitY=1;exitDx=0;exitDy=0;entryX=0;entryY=0;entryDx=0;entryDy=0;endArrow=none;endFill=0;" edge="1" parent="1" source="m6FLoSGMfTkBYZxW1C0_-52" target="m6FLoSGMfTkBYZxW1C0_-50">
          <mxGeometry relative="1" as="geometry" />
        </mxCell>
        <mxCell id="m6FLoSGMfTkBYZxW1C0_-52" value="Namn" style="ellipse;whiteSpace=wrap;html=1;" parent="1" vertex="1">
          <mxGeometry x="940" y="120" width="40" height="40" as="geometry" />
        </mxCell>
        <mxCell id="URoDn2Y77BlblB-8Fl30-28" style="edgeStyle=orthogonalEdgeStyle;rounded=0;orthogonalLoop=1;jettySize=auto;html=1;exitX=0.5;exitY=1;exitDx=0;exitDy=0;entryX=0.25;entryY=0;entryDx=0;entryDy=0;endArrow=none;endFill=0;" edge="1" parent="1" source="m6FLoSGMfTkBYZxW1C0_-53" target="m6FLoSGMfTkBYZxW1C0_-50">
          <mxGeometry relative="1" as="geometry" />
        </mxCell>
        <mxCell id="m6FLoSGMfTkBYZxW1C0_-53" value="&lt;u&gt;Medlemsnummer&lt;/u&gt;" style="ellipse;whiteSpace=wrap;html=1;" parent="1" vertex="1">
          <mxGeometry x="990" y="120" width="115" height="40" as="geometry" />
        </mxCell>
        <mxCell id="URoDn2Y77BlblB-8Fl30-31" style="edgeStyle=orthogonalEdgeStyle;rounded=0;orthogonalLoop=1;jettySize=auto;html=1;exitX=0;exitY=1;exitDx=0;exitDy=0;entryX=0.75;entryY=0;entryDx=0;entryDy=0;endArrow=none;endFill=0;" edge="1" parent="1" source="m6FLoSGMfTkBYZxW1C0_-54" target="m6FLoSGMfTkBYZxW1C0_-50">
          <mxGeometry relative="1" as="geometry" />
        </mxCell>
        <mxCell id="m6FLoSGMfTkBYZxW1C0_-54" value="Start- Datum" style="ellipse;whiteSpace=wrap;html=1;fontSize=10;" parent="1" vertex="1">
          <mxGeometry x="1110" y="120" width="40" height="40" as="geometry" />
        </mxCell>
        <mxCell id="URoDn2Y77BlblB-8Fl30-29" style="edgeStyle=orthogonalEdgeStyle;rounded=0;orthogonalLoop=1;jettySize=auto;html=1;exitX=0.5;exitY=1;exitDx=0;exitDy=0;entryX=1;entryY=0;entryDx=0;entryDy=0;endArrow=none;endFill=0;" edge="1" parent="1" source="m6FLoSGMfTkBYZxW1C0_-55" target="m6FLoSGMfTkBYZxW1C0_-50">
          <mxGeometry relative="1" as="geometry" />
        </mxCell>
        <mxCell id="m6FLoSGMfTkBYZxW1C0_-55" value="Adress" style="ellipse;whiteSpace=wrap;html=1;fontSize=11;" parent="1" vertex="1">
          <mxGeometry x="1160" y="120" width="40" height="40" as="geometry" />
        </mxCell>
        <mxCell id="m6FLoSGMfTkBYZxW1C0_-63" value="M" style="edgeStyle=orthogonalEdgeStyle;rounded=0;orthogonalLoop=1;jettySize=auto;html=1;endArrow=none;endFill=0;" parent="1" source="m6FLoSGMfTkBYZxW1C0_-60" target="m6FLoSGMfTkBYZxW1C0_-62" edge="1">
          <mxGeometry x="-0.6842" relative="1" as="geometry">
            <mxPoint as="offset" />
          </mxGeometry>
        </mxCell>
        <mxCell id="m6FLoSGMfTkBYZxW1C0_-83" style="edgeStyle=orthogonalEdgeStyle;rounded=0;orthogonalLoop=1;jettySize=auto;html=1;exitX=0;exitY=0.5;exitDx=0;exitDy=0;entryX=1;entryY=0.5;entryDx=0;entryDy=0;endArrow=none;endFill=0;" parent="1" source="m6FLoSGMfTkBYZxW1C0_-60" target="m6FLoSGMfTkBYZxW1C0_-77" edge="1">
          <mxGeometry relative="1" as="geometry" />
        </mxCell>
        <mxCell id="m6FLoSGMfTkBYZxW1C0_-84" style="edgeStyle=orthogonalEdgeStyle;rounded=0;orthogonalLoop=1;jettySize=auto;html=1;exitX=0;exitY=0.5;exitDx=0;exitDy=0;entryX=1;entryY=0.5;entryDx=0;entryDy=0;endArrow=none;endFill=0;" parent="1" source="m6FLoSGMfTkBYZxW1C0_-60" target="m6FLoSGMfTkBYZxW1C0_-78" edge="1">
          <mxGeometry relative="1" as="geometry" />
        </mxCell>
        <mxCell id="m6FLoSGMfTkBYZxW1C0_-60" value="erbjuder" style="rhombus;whiteSpace=wrap;html=1;rounded=0;" parent="1" vertex="1">
          <mxGeometry x="670" y="335" width="80" height="80" as="geometry" />
        </mxCell>
        <mxCell id="m6FLoSGMfTkBYZxW1C0_-65" value="N" style="edgeStyle=orthogonalEdgeStyle;rounded=0;orthogonalLoop=1;jettySize=auto;html=1;endArrow=none;endFill=0;" parent="1" source="m6FLoSGMfTkBYZxW1C0_-62" target="m6FLoSGMfTkBYZxW1C0_-64" edge="1">
          <mxGeometry x="0.8" relative="1" as="geometry">
            <mxPoint as="offset" />
          </mxGeometry>
        </mxCell>
        <mxCell id="m6FLoSGMfTkBYZxW1C0_-106" style="edgeStyle=orthogonalEdgeStyle;rounded=0;orthogonalLoop=1;jettySize=auto;html=1;exitX=1;exitY=0.5;exitDx=0;exitDy=0;endArrow=none;endFill=0;" parent="1" source="m6FLoSGMfTkBYZxW1C0_-62" edge="1">
          <mxGeometry relative="1" as="geometry">
            <mxPoint x="1070" y="540" as="targetPoint" />
          </mxGeometry>
        </mxCell>
        <mxCell id="m6FLoSGMfTkBYZxW1C0_-62" value="Film" style="whiteSpace=wrap;html=1;rounded=0;" parent="1" vertex="1">
          <mxGeometry x="650" y="510" width="120" height="60" as="geometry" />
        </mxCell>
        <mxCell id="m6FLoSGMfTkBYZxW1C0_-67" value="M" style="edgeStyle=orthogonalEdgeStyle;rounded=0;orthogonalLoop=1;jettySize=auto;html=1;endArrow=none;endFill=0;" parent="1" source="m6FLoSGMfTkBYZxW1C0_-64" target="m6FLoSGMfTkBYZxW1C0_-66" edge="1">
          <mxGeometry x="-0.6667" relative="1" as="geometry">
            <mxPoint as="offset" />
          </mxGeometry>
        </mxCell>
        <mxCell id="m6FLoSGMfTkBYZxW1C0_-87" style="edgeStyle=orthogonalEdgeStyle;rounded=0;orthogonalLoop=1;jettySize=auto;html=1;exitX=0.5;exitY=1;exitDx=0;exitDy=0;entryX=0.5;entryY=0;entryDx=0;entryDy=0;endArrow=none;endFill=0;" parent="1" source="m6FLoSGMfTkBYZxW1C0_-64" target="m6FLoSGMfTkBYZxW1C0_-86" edge="1">
          <mxGeometry relative="1" as="geometry" />
        </mxCell>
        <mxCell id="m6FLoSGMfTkBYZxW1C0_-88" style="edgeStyle=orthogonalEdgeStyle;rounded=0;orthogonalLoop=1;jettySize=auto;html=1;exitX=0.5;exitY=1;exitDx=0;exitDy=0;entryX=0.5;entryY=0;entryDx=0;entryDy=0;endArrow=none;endFill=0;" parent="1" source="m6FLoSGMfTkBYZxW1C0_-64" target="m6FLoSGMfTkBYZxW1C0_-85" edge="1">
          <mxGeometry relative="1" as="geometry" />
        </mxCell>
        <mxCell id="m6FLoSGMfTkBYZxW1C0_-64" value="har" style="rhombus;whiteSpace=wrap;html=1;rounded=0;" parent="1" vertex="1">
          <mxGeometry x="470" y="500" width="80" height="80" as="geometry" />
        </mxCell>
        <mxCell id="m6FLoSGMfTkBYZxW1C0_-66" value="Film_Personal" style="whiteSpace=wrap;html=1;rounded=0;" parent="1" vertex="1">
          <mxGeometry x="290" y="510" width="120" height="60" as="geometry" />
        </mxCell>
        <mxCell id="URoDn2Y77BlblB-8Fl30-10" style="edgeStyle=orthogonalEdgeStyle;rounded=0;orthogonalLoop=1;jettySize=auto;html=1;exitX=1;exitY=0.5;exitDx=0;exitDy=0;entryX=0;entryY=0.5;entryDx=0;entryDy=0;endArrow=none;endFill=0;" edge="1" parent="1" source="m6FLoSGMfTkBYZxW1C0_-73" target="m6FLoSGMfTkBYZxW1C0_-60">
          <mxGeometry relative="1" as="geometry" />
        </mxCell>
        <mxCell id="m6FLoSGMfTkBYZxW1C0_-73" value="Hyllnamn" style="ellipse;whiteSpace=wrap;html=1;rounded=0;fontSize=10;" parent="1" vertex="1">
          <mxGeometry x="510" y="417.5" width="50" height="35" as="geometry" />
        </mxCell>
        <mxCell id="URoDn2Y77BlblB-8Fl30-9" style="edgeStyle=orthogonalEdgeStyle;rounded=0;orthogonalLoop=1;jettySize=auto;html=1;exitX=1;exitY=0.5;exitDx=0;exitDy=0;entryX=0;entryY=0.5;entryDx=0;entryDy=0;endArrow=none;endFill=0;" edge="1" parent="1" source="m6FLoSGMfTkBYZxW1C0_-76" target="m6FLoSGMfTkBYZxW1C0_-60">
          <mxGeometry relative="1" as="geometry" />
        </mxCell>
        <mxCell id="m6FLoSGMfTkBYZxW1C0_-76" value="Antal" style="ellipse;whiteSpace=wrap;html=1;" parent="1" vertex="1">
          <mxGeometry x="520" y="377.5" width="40" height="40" as="geometry" />
        </mxCell>
        <mxCell id="m6FLoSGMfTkBYZxW1C0_-77" value="Status" style="ellipse;whiteSpace=wrap;html=1;" parent="1" vertex="1">
          <mxGeometry x="520" y="337.5" width="40" height="40" as="geometry" />
        </mxCell>
        <mxCell id="m6FLoSGMfTkBYZxW1C0_-78" value="Pris" style="ellipse;whiteSpace=wrap;html=1;" parent="1" vertex="1">
          <mxGeometry x="520" y="297.5" width="40" height="40" as="geometry" />
        </mxCell>
        <mxCell id="m6FLoSGMfTkBYZxW1C0_-85" value="Roll" style="ellipse;whiteSpace=wrap;html=1;" parent="1" vertex="1">
          <mxGeometry x="515" y="620" width="40" height="40" as="geometry" />
        </mxCell>
        <mxCell id="m6FLoSGMfTkBYZxW1C0_-86" value="Prioritet" style="ellipse;whiteSpace=wrap;html=1;fontSize=9;" parent="1" vertex="1">
          <mxGeometry x="465" y="620" width="40" height="40" as="geometry" />
        </mxCell>
        <mxCell id="m6FLoSGMfTkBYZxW1C0_-92" style="edgeStyle=orthogonalEdgeStyle;rounded=0;orthogonalLoop=1;jettySize=auto;html=1;exitX=1;exitY=0.5;exitDx=0;exitDy=0;entryX=0;entryY=0.5;entryDx=0;entryDy=0;endArrow=none;endFill=0;" parent="1" source="m6FLoSGMfTkBYZxW1C0_-89" target="m6FLoSGMfTkBYZxW1C0_-66" edge="1">
          <mxGeometry relative="1" as="geometry" />
        </mxCell>
        <mxCell id="m6FLoSGMfTkBYZxW1C0_-89" value="Namn" style="ellipse;whiteSpace=wrap;html=1;rounded=0;" parent="1" vertex="1">
          <mxGeometry x="210" y="520" width="45" height="40" as="geometry" />
        </mxCell>
        <mxCell id="URoDn2Y77BlblB-8Fl30-12" style="edgeStyle=orthogonalEdgeStyle;rounded=0;orthogonalLoop=1;jettySize=auto;html=1;exitX=1;exitY=0;exitDx=0;exitDy=0;entryX=0.5;entryY=1;entryDx=0;entryDy=0;endArrow=none;endFill=0;" edge="1" parent="1" source="m6FLoSGMfTkBYZxW1C0_-93" target="m6FLoSGMfTkBYZxW1C0_-62">
          <mxGeometry relative="1" as="geometry" />
        </mxCell>
        <mxCell id="m6FLoSGMfTkBYZxW1C0_-93" value="Filmnummer" style="ellipse;whiteSpace=wrap;html=1;fontStyle=0" parent="1" vertex="1">
          <mxGeometry x="580" y="650" width="80" height="40" as="geometry" />
        </mxCell>
        <mxCell id="URoDn2Y77BlblB-8Fl30-13" style="edgeStyle=orthogonalEdgeStyle;rounded=0;orthogonalLoop=1;jettySize=auto;html=1;exitX=0.5;exitY=0;exitDx=0;exitDy=0;entryX=0.5;entryY=1;entryDx=0;entryDy=0;endArrow=none;endFill=0;" edge="1" parent="1" source="m6FLoSGMfTkBYZxW1C0_-94" target="m6FLoSGMfTkBYZxW1C0_-62">
          <mxGeometry relative="1" as="geometry" />
        </mxCell>
        <mxCell id="m6FLoSGMfTkBYZxW1C0_-94" value="Titel" style="ellipse;whiteSpace=wrap;html=1;" parent="1" vertex="1">
          <mxGeometry x="660" y="650" width="40" height="40" as="geometry" />
        </mxCell>
        <mxCell id="URoDn2Y77BlblB-8Fl30-14" style="edgeStyle=orthogonalEdgeStyle;rounded=0;orthogonalLoop=1;jettySize=auto;html=1;exitX=0.5;exitY=0;exitDx=0;exitDy=0;endArrow=none;endFill=0;" edge="1" parent="1" source="m6FLoSGMfTkBYZxW1C0_-95">
          <mxGeometry relative="1" as="geometry">
            <mxPoint x="710" y="570" as="targetPoint" />
          </mxGeometry>
        </mxCell>
        <mxCell id="m6FLoSGMfTkBYZxW1C0_-95" value="Filmlängd" style="ellipse;whiteSpace=wrap;html=1;" parent="1" vertex="1">
          <mxGeometry x="700" y="650" width="80" height="40" as="geometry" />
        </mxCell>
        <mxCell id="m6FLoSGMfTkBYZxW1C0_-107" value="M" style="edgeStyle=orthogonalEdgeStyle;rounded=0;orthogonalLoop=1;jettySize=auto;html=1;exitX=0.5;exitY=1;exitDx=0;exitDy=0;endArrow=none;endFill=0;" parent="1" source="m6FLoSGMfTkBYZxW1C0_-100" edge="1">
          <mxGeometry x="-0.8188" relative="1" as="geometry">
            <mxPoint x="1070" y="540" as="targetPoint" />
            <mxPoint as="offset" />
          </mxGeometry>
        </mxCell>
        <mxCell id="m6FLoSGMfTkBYZxW1C0_-115" style="edgeStyle=orthogonalEdgeStyle;rounded=0;orthogonalLoop=1;jettySize=auto;html=1;exitX=0;exitY=0.5;exitDx=0;exitDy=0;endArrow=none;endFill=0;" parent="1" source="m6FLoSGMfTkBYZxW1C0_-100" target="m6FLoSGMfTkBYZxW1C0_-110" edge="1">
          <mxGeometry relative="1" as="geometry" />
        </mxCell>
        <mxCell id="m6FLoSGMfTkBYZxW1C0_-116" style="edgeStyle=orthogonalEdgeStyle;rounded=0;orthogonalLoop=1;jettySize=auto;html=1;exitX=0;exitY=0.5;exitDx=0;exitDy=0;entryX=1;entryY=0.5;entryDx=0;entryDy=0;endArrow=none;endFill=0;" parent="1" source="m6FLoSGMfTkBYZxW1C0_-100" target="m6FLoSGMfTkBYZxW1C0_-109" edge="1">
          <mxGeometry relative="1" as="geometry" />
        </mxCell>
        <mxCell id="m6FLoSGMfTkBYZxW1C0_-100" value="hyr" style="rhombus;whiteSpace=wrap;html=1;rounded=0;" parent="1" vertex="1">
          <mxGeometry x="970" y="355" width="80" height="80" as="geometry" />
        </mxCell>
        <mxCell id="m6FLoSGMfTkBYZxW1C0_-108" value="M" style="edgeStyle=orthogonalEdgeStyle;rounded=0;orthogonalLoop=1;jettySize=auto;html=1;exitX=0.5;exitY=1;exitDx=0;exitDy=0;endArrow=none;endFill=0;" parent="1" source="m6FLoSGMfTkBYZxW1C0_-102" edge="1">
          <mxGeometry x="-0.8176" relative="1" as="geometry">
            <mxPoint x="1070" y="540" as="targetPoint" />
            <mxPoint as="offset" />
          </mxGeometry>
        </mxCell>
        <mxCell id="m6FLoSGMfTkBYZxW1C0_-119" style="edgeStyle=orthogonalEdgeStyle;rounded=0;orthogonalLoop=1;jettySize=auto;html=1;exitX=1;exitY=0.5;exitDx=0;exitDy=0;entryX=0;entryY=0.5;entryDx=0;entryDy=0;endArrow=none;endFill=0;" parent="1" source="m6FLoSGMfTkBYZxW1C0_-102" target="m6FLoSGMfTkBYZxW1C0_-118" edge="1">
          <mxGeometry relative="1" as="geometry" />
        </mxCell>
        <mxCell id="m6FLoSGMfTkBYZxW1C0_-120" style="edgeStyle=orthogonalEdgeStyle;rounded=0;orthogonalLoop=1;jettySize=auto;html=1;exitX=1;exitY=0.5;exitDx=0;exitDy=0;entryX=0;entryY=0.5;entryDx=0;entryDy=0;endArrow=none;endFill=0;" parent="1" source="m6FLoSGMfTkBYZxW1C0_-102" target="m6FLoSGMfTkBYZxW1C0_-117" edge="1">
          <mxGeometry relative="1" as="geometry" />
        </mxCell>
        <mxCell id="m6FLoSGMfTkBYZxW1C0_-102" value="reserverar" style="rhombus;whiteSpace=wrap;html=1;rounded=0;" parent="1" vertex="1">
          <mxGeometry x="1090" y="355" width="80" height="80" as="geometry" />
        </mxCell>
        <mxCell id="m6FLoSGMfTkBYZxW1C0_-109" value="Återlämning" style="ellipse;whiteSpace=wrap;html=1;fontSize=9;" parent="1" vertex="1">
          <mxGeometry x="860" y="397.5" width="60" height="40" as="geometry" />
        </mxCell>
        <mxCell id="m6FLoSGMfTkBYZxW1C0_-110" value="Datum" style="ellipse;whiteSpace=wrap;html=1;fontSize=10;" parent="1" vertex="1">
          <mxGeometry x="880" y="355" width="40" height="40" as="geometry" />
        </mxCell>
        <mxCell id="m6FLoSGMfTkBYZxW1C0_-117" value="Senast" style="ellipse;whiteSpace=wrap;html=1;fontSize=10;" parent="1" vertex="1">
          <mxGeometry x="1230" y="397.5" width="40" height="40" as="geometry" />
        </mxCell>
        <mxCell id="m6FLoSGMfTkBYZxW1C0_-118" value="Datum" style="ellipse;whiteSpace=wrap;html=1;fontSize=10;" parent="1" vertex="1">
          <mxGeometry x="1230" y="352.5" width="40" height="40" as="geometry" />
        </mxCell>
        <mxCell id="URoDn2Y77BlblB-8Fl30-17" style="edgeStyle=orthogonalEdgeStyle;rounded=0;orthogonalLoop=1;jettySize=auto;html=1;exitX=0.5;exitY=0;exitDx=0;exitDy=0;entryX=0.5;entryY=1;entryDx=0;entryDy=0;endArrow=none;endFill=0;" edge="1" parent="1" source="URoDn2Y77BlblB-8Fl30-16" target="m6FLoSGMfTkBYZxW1C0_-62">
          <mxGeometry relative="1" as="geometry" />
        </mxCell>
        <mxCell id="URoDn2Y77BlblB-8Fl30-16" value="Genre" style="ellipse;shape=doubleEllipse;margin=3;whiteSpace=wrap;html=1;align=center;" vertex="1" parent="1">
          <mxGeometry x="780" y="650" width="50" height="40" as="geometry" />
        </mxCell>
      </root>
    </mxGraphModel>
  </diagram>
</mxfile>
